<svg width="18" height="18" viewBox="0 0 18 18" fill="none" xmlns="http://www.w3.org/2000/svg">
<path d="M10.6059 9L17.8826 1.72366C18.0392 1.56684 18.0392 1.31275 17.8826 1.15593L16.8448 0.117565C16.7695 0.0424752 16.6671 0 16.5607 0C16.4542 0 16.352 0.0424752 16.2767 0.117565L9.00016 7.3941L1.72363 0.117565C1.57288 -0.0331837 1.30608 -0.0329941 1.15571 0.117565L0.118101 1.15593C-0.0387159 1.31275 -0.0387159 1.56684 0.118101 1.72366L7.39463 9L0.118101 16.2763C-0.0387159 16.4332 -0.0387159 16.6873 0.118101 16.8441L1.1559 17.8824C1.23118 17.9575 1.33338 18 1.43995 18C1.54652 18 1.64854 17.9575 1.72381 17.8824L9.00035 10.6059L16.2769 17.8824C16.3522 17.9575 16.4546 18 16.5609 18C16.6673 18 16.7697 17.9575 16.845 17.8824L17.8828 16.8441C18.0394 16.6873 18.0394 16.4332 17.8828 16.2763L10.6059 9Z" fill="#656565"/>
</svg>
