<svg width="16" height="18" viewBox="0 0 16 18" fill="none" xmlns="http://www.w3.org/2000/svg">
          <path
            d="M14.1875 3.375H12.5V1.125C12.5 0.503719 11.9963 0 11.375 0H4.625C4.00372 0 3.5 0.503719 3.5 1.125V3.375H1.8125C1.19122 3.375 0.6875 3.87872 0.6875 4.5V5.625H15.3125V4.5C15.3125 3.87872 14.8088 3.375 14.1875 3.375ZM5.75 3.375V2.25H10.25V3.375H5.75Z"
            fill="#656565"
          />
          <path
            d="M1.8125 16.8751C1.8125 17.4964 2.31608 18 2.93736 18H13.0628C13.6839 18 14.1875 17.4964 14.1875 16.8753V16.8751V6.75H1.8125V16.8751ZM10.25 9.5625C10.25 9.25186 10.5019 9 10.8125 9C11.1231 9 11.375 9.25186 11.375 9.5625V15.1875C11.375 15.4981 11.1231 15.75 10.8125 15.75C10.5019 15.75 10.25 15.4981 10.25 15.1875V9.5625ZM7.4375 9.5625C7.4375 9.25186 7.68936 9 8 9C8.31064 9 8.5625 9.25186 8.5625 9.5625V15.1875C8.5625 15.4981 8.31064 15.75 8 15.75C7.68936 15.75 7.4375 15.4981 7.4375 15.1875V9.5625ZM4.625 9.5625C4.625 9.25186 4.87686 9 5.1875 9C5.49814 9 5.75 9.25186 5.75 9.5625V15.1875C5.75 15.4981 5.49814 15.75 5.1875 15.75C4.87686 15.75 4.625 15.4981 4.625 15.1875V9.5625Z"
            fill="#656565"
          />
</svg>