<svg width="21" height="21" viewBox="0 0 21 21" fill="none" xmlns="http://www.w3.org/2000/svg">
<path d="M10.4996 0C4.70092 0 0 4.70127 0 10.4998C0 16.2983 4.70092 21 10.4996 21C16.2984 21 20.9999 16.2986 20.9999 10.4998C20.9999 4.70099 16.2984 0 10.4996 0ZM15.4911 7.55615L14.4938 8.55344L12.4637 6.52351L11.6936 7.29365L13.7236 9.32372L8.7444 14.3025L6.71447 12.2728L5.94433 13.043L7.97426 15.0729L7.4781 15.569L7.46865 15.5596C7.41363 15.6502 7.32417 15.7163 7.21791 15.7398L5.3249 16.1619C5.29655 16.1683 5.26771 16.1714 5.23922 16.1714C5.1359 16.1714 5.03552 16.1307 4.96111 16.0561C4.86563 15.961 4.82587 15.8236 4.85527 15.6919L5.27716 13.7994C5.30096 13.6933 5.36718 13.6036 5.45762 13.5487L5.44803 13.5391L13.4609 5.52587C13.5784 5.40862 13.7692 5.40862 13.8867 5.52622L15.4912 7.13041C15.6087 7.24787 15.6087 7.43869 15.4911 7.55615Z" fill="black"/>
</svg>
