<svg width="18" height="18" viewBox="0 0 18 18" fill="none" xmlns="http://www.w3.org/2000/svg">
          <path
            d="M17.6704 3.70459L14.2954 0.32959C13.856 -0.109863 13.1441 -0.109863 12.7046 0.32959L11.4148 1.6194L16.3806 6.58522L17.6704 5.29541C18.1099 4.85596 18.1099 4.14404 17.6704 3.70459Z"
            fill="#656565"
          />
          <path
            d="M0.0335066 16.602C-0.0620832 16.9854 0.0499949 17.3908 0.329593 17.6704C0.543272 17.8841 0.830569 18 1.125 18C1.21564 18 1.30736 17.989 1.39803 17.9665L5.01638 17.0618L0.938253 12.9837L0.0335066 16.602Z"
            fill="#656565"
          />
          <path
            d="M12.7046 4.53514L10.6193 2.44992C10.6193 2.44992 1.36224 11.7099 1.30072 11.7773L3.37494 13.8647L12.7046 4.53514Z"
            fill="#656565"
          />
          <path
            d="M4.17041 14.625L6.25781 16.6992C6.32595 16.6333 15.5852 7.3806 15.5852 7.3806L13.5 5.29541L4.17041 14.625Z"
            fill="#656565"
          />
 </svg>