<svg width="16" height="18" viewBox="0 0 16 18" fill="none" xmlns="http://www.w3.org/2000/svg">
<path d="M15.7296 4.89638C15.6745 3.53737 15.0934 2.27881 14.0929 1.35507C13.6202 0.919794 13.0825 0.581026 12.4936 0.348616C11.9047 0.118175 11.2823 0 10.6422 0C10.5733 0 10.5024 0.00196958 10.4334 0.00393916C9.07442 0.0590874 7.81783 0.640114 6.89213 1.64263L1.16262 7.82514C0.979445 8.02409 0.989293 8.33332 1.18625 8.51844L1.58411 8.89266C1.78303 9.07977 2.0962 9.06992 2.28331 8.86902L8.01676 2.68257C8.67066 1.97352 9.62984 1.56582 10.6461 1.56582C11.56 1.56582 12.4168 1.8908 13.0549 2.48167C13.7541 3.12769 14.1619 4.00613 14.1993 4.9594C14.2367 5.91071 13.9058 6.81672 13.2637 7.51198L5.47602 15.8256C5.08604 16.2471 4.51683 16.4893 3.91217 16.4893C3.36857 16.4893 2.85845 16.2963 2.47832 15.9438C2.06273 15.5597 1.82245 15.0378 1.79684 14.4705C1.77321 13.9052 1.97016 13.3656 2.35029 12.9539C2.35029 12.9539 9.59835 5.21939 9.61019 5.20954C10.2444 4.5517 11.239 5.50892 10.6048 6.16676C9.52747 7.28351 6.76021 10.2714 5.40513 11.7387C5.22194 11.9376 5.23179 12.2469 5.42875 12.432L5.8266 12.8062C6.02555 12.9933 6.33869 12.9835 6.5258 12.7826L11.7432 7.15746C12.5685 6.26327 12.5133 4.8629 11.6172 4.03567C11.2095 3.65948 10.6757 3.45071 10.1183 3.45071C9.81698 3.45071 9.52546 3.50979 9.24972 3.62797C8.96612 3.74811 8.71401 3.92537 8.50521 4.15385L1.23155 11.9101C-0.133368 13.3892 -0.0388279 15.7035 1.44033 17.0704C2.09029 17.6711 2.96675 18 3.90821 18C4.95406 18 5.93294 17.5884 6.59472 16.8714L14.3824 8.55781C15.3042 7.55728 15.7828 6.25736 15.7296 4.89638Z" fill="#FF4D4D"/>
</svg>
