<svg width="16" height="18" viewBox="0 0 16 18" fill="none" xmlns="http://www.w3.org/2000/svg">
          <path
            d="M15.7296 4.89638C15.6745 3.53737 15.0934 2.27881 14.0929 1.35507C13.6202 0.919794 13.0825 0.581026 12.4936 0.348616C11.9047 0.118175 11.2823 0 10.6422 0C10.5733 0 10.5024 0.00196958 10.4334 0.00393916C9.07443 0.0590874 7.81784 0.640114 6.89214 1.64263L1.16262 7.82514C0.979453 8.02409 0.989301 8.33332 1.18626 8.51844L1.58411 8.89266C1.78304 9.07977 2.09621 9.06992 2.28332 8.86902L8.01677 2.68257C8.67067 1.97352 9.62985 1.56582 10.6462 1.56582C11.56 1.56582 12.4168 1.8908 13.055 2.48167C13.7542 3.12769 14.1619 4.00613 14.1993 4.9594C14.2367 5.91071 13.9058 6.81672 13.2637 7.51198L5.47603 15.8256C5.08605 16.2471 4.51684 16.4893 3.91218 16.4893C3.36857 16.4893 2.85845 16.2963 2.47832 15.9438C2.06274 15.5597 1.82245 15.0378 1.79685 14.4705C1.77321 13.9052 1.97017 13.3656 2.3503 12.9539C2.3503 12.9539 9.59836 5.21939 9.6102 5.20954C10.2444 4.5517 11.239 5.50892 10.6048 6.16676C9.52747 7.28351 6.76021 10.2714 5.40514 11.7387C5.22195 11.9376 5.2318 12.2469 5.42876 12.432L5.82661 12.8062C6.02556 12.9933 6.3387 12.9835 6.52581 12.7826L11.7432 7.15746C12.5685 6.26327 12.5133 4.8629 11.6172 4.03567C11.2095 3.65948 10.6757 3.45071 10.1183 3.45071C9.81698 3.45071 9.52547 3.50979 9.24972 3.62797C8.96612 3.74811 8.71402 3.92537 8.50522 4.15385L1.23156 11.9101C-0.13336 13.3892 -0.0388202 15.7035 1.44034 17.0704C2.0903 17.6711 2.96676 18 3.90822 18C4.95407 18 5.93295 17.5884 6.59473 16.8714L14.3825 8.55781C15.3042 7.55728 15.7828 6.25736 15.7296 4.89638Z"
            fill="#656565"
          />
</svg>