<svg width="18" height="19" viewBox="0 0 18 19" fill="none" xmlns="http://www.w3.org/2000/svg">
<path d="M17.7731 16.9033L12.6087 11.7352C13.6268 10.5142 14.2392 8.95376 14.2392 7.24949C14.2392 3.36139 11.0483 0.199997 7.12327 0.199997C3.19828 0.199997 0 3.36508 0 7.25318C0 11.1413 3.1909 14.3027 7.11589 14.3027C8.78328 14.3027 10.3179 13.7309 11.5352 12.7755L16.7181 17.9584C17.0206 18.2609 17.4706 18.2609 17.7731 17.9584C18.0756 17.6559 18.0756 17.2058 17.7731 16.9033ZM1.51245 7.25318C1.51245 4.19877 4.02828 1.71614 7.11589 1.71614C10.2035 1.71614 12.7193 4.19877 12.7193 7.25318C12.7193 10.3076 10.2035 12.7902 7.11589 12.7902C4.02828 12.7902 1.51245 10.3039 1.51245 7.25318Z" fill="#7C7C7C"/>
</svg>
